<?xml version="1.0" encoding="UTF-8" standalone="no"?><svg xmlns="http://www.w3.org/2000/svg" xmlns:xlink="http://www.w3.org/1999/xlink" contentScriptType="application/ecmascript" contentStyleType="text/css" height="210px" preserveAspectRatio="none" style="width:455px;height:210px;" version="1.1" viewBox="0 0 455 210" width="455px" zoomAndPan="magnify"><defs><filter height="300%" id="fdvzb5pffs21v" width="300%" x="-1" y="-1"><feGaussianBlur result="blurOut" stdDeviation="2.0"/><feColorMatrix in="blurOut" result="blurOut2" type="matrix" values="0 0 0 0 0 0 0 0 0 0 0 0 0 0 0 0 0 0 .4 0"/><feOffset dx="4.0" dy="4.0" in="blurOut2" result="blurOut3"/><feBlend in="SourceGraphic" in2="blurOut3" mode="normal"/></filter></defs><g><!--MD5=[95174e42ee347a14b6cb78d6855f19b5]
class Element--><rect fill="#FEFECE" filter="url(#fdvzb5pffs21v)" height="52.8047" id="Element" style="stroke: #A80036; stroke-width: 1.5;" width="122" x="161.5" y="14.5"/><ellipse cx="194.05" cy="30.5" fill="#B4A7E5" rx="11" ry="11" style="stroke: #A80036; stroke-width: 1.0;"/><path d="M189.9719,26.2656 L189.9719,24.1094 L197.3625,24.1094 L197.3625,26.2656 L194.8938,26.2656 L194.8938,34.3438 L197.3625,34.3438 L197.3625,36.5 L189.9719,36.5 L189.9719,34.3438 L192.4406,34.3438 L192.4406,26.2656 L189.9719,26.2656 Z "/><text fill="#000000" font-family="sans-serif" font-size="12" font-style="italic" lengthAdjust="spacingAndGlyphs" textLength="51" x="211.95" y="34.6543">Element</text><line style="stroke: #A80036; stroke-width: 1.5;" x1="162.5" x2="282.5" y1="46.5" y2="46.5"/><ellipse cx="172.5" cy="57.5" fill="#84BE84" rx="3" ry="3" style="stroke: #038048; stroke-width: 1.0;"/><text fill="#000000" font-family="sans-serif" font-size="11" font-style="italic" lengthAdjust="spacingAndGlyphs" textLength="96" x="181.5" y="60.7104">accept(v: Visitor)</text><!--MD5=[53bf68ed638bcf4718423098b3d480ea]
class Visitor--><rect fill="#FEFECE" filter="url(#fdvzb5pffs21v)" height="65.6094" id="Visitor" style="stroke: #A80036; stroke-width: 1.5;" width="126" x="318.5" y="8"/><ellipse cx="358.7" cy="24" fill="#B4A7E5" rx="11" ry="11" style="stroke: #A80036; stroke-width: 1.0;"/><path d="M354.6219,19.7656 L354.6219,17.6094 L362.0125,17.6094 L362.0125,19.7656 L359.5438,19.7656 L359.5438,27.8438 L362.0125,27.8438 L362.0125,30 L354.6219,30 L354.6219,27.8438 L357.0906,27.8438 L357.0906,19.7656 L354.6219,19.7656 Z "/><text fill="#000000" font-family="sans-serif" font-size="12" font-style="italic" lengthAdjust="spacingAndGlyphs" textLength="38" x="378.3" y="28.1543">Visitor</text><line style="stroke: #A80036; stroke-width: 1.5;" x1="319.5" x2="443.5" y1="40" y2="40"/><ellipse cx="329.5" cy="51" fill="#84BE84" rx="3" ry="3" style="stroke: #038048; stroke-width: 1.0;"/><text fill="#000000" font-family="sans-serif" font-size="11" font-style="italic" lengthAdjust="spacingAndGlyphs" textLength="100" x="338.5" y="54.2104">visit(e: ElementA)</text><ellipse cx="329.5" cy="63.8047" fill="#84BE84" rx="3" ry="3" style="stroke: #038048; stroke-width: 1.0;"/><text fill="#000000" font-family="sans-serif" font-size="11" font-style="italic" lengthAdjust="spacingAndGlyphs" textLength="100" x="338.5" y="67.0151">visit(e: ElementB)</text><!--MD5=[bffce2a0b648aad08abc4da1a657fa44]
class ElementA--><rect fill="#FEFECE" filter="url(#fdvzb5pffs21v)" height="52.8047" id="ElementA" style="stroke: #A80036; stroke-width: 1.5;" width="121" x="6" y="140.5"/><ellipse cx="34.5" cy="156.5" fill="#ADD1B2" rx="11" ry="11" style="stroke: #A80036; stroke-width: 1.0;"/><path d="M37.4688,162.1406 Q36.8906,162.4375 36.25,162.5859 Q35.6094,162.7344 34.9063,162.7344 Q32.4063,162.7344 31.0859,161.0859 Q29.7656,159.4375 29.7656,156.3125 Q29.7656,153.1875 31.0859,151.5313 Q32.4063,149.875 34.9063,149.875 Q35.6094,149.875 36.2578,150.0313 Q36.9063,150.1875 37.4688,150.4844 L37.4688,153.2031 Q36.8438,152.625 36.25,152.3516 Q35.6563,152.0781 35.0313,152.0781 Q33.6875,152.0781 33,153.1484 Q32.3125,154.2188 32.3125,156.3125 Q32.3125,158.4063 33,159.4766 Q33.6875,160.5469 35.0313,160.5469 Q35.6563,160.5469 36.25,160.2734 Q36.8438,160 37.4688,159.4219 L37.4688,162.1406 Z "/><text fill="#000000" font-family="sans-serif" font-size="12" lengthAdjust="spacingAndGlyphs" textLength="59" x="51.5" y="160.6543">ElementA</text><line style="stroke: #A80036; stroke-width: 1.5;" x1="7" x2="126" y1="172.5" y2="172.5"/><ellipse cx="17" cy="183.5" fill="#84BE84" rx="3" ry="3" style="stroke: #038048; stroke-width: 1.0;"/><text fill="#000000" font-family="sans-serif" font-size="11" lengthAdjust="spacingAndGlyphs" textLength="95" x="26" y="186.7104">accept(v: Visitor)</text><!--MD5=[363b235a6321f5c860e95872eb772b76]
class ElementB--><rect fill="#FEFECE" filter="url(#fdvzb5pffs21v)" height="52.8047" id="ElementB" style="stroke: #A80036; stroke-width: 1.5;" width="121" x="162" y="140.5"/><ellipse cx="190.5" cy="156.5" fill="#ADD1B2" rx="11" ry="11" style="stroke: #A80036; stroke-width: 1.0;"/><path d="M193.4688,162.1406 Q192.8906,162.4375 192.25,162.5859 Q191.6094,162.7344 190.9063,162.7344 Q188.4063,162.7344 187.0859,161.0859 Q185.7656,159.4375 185.7656,156.3125 Q185.7656,153.1875 187.0859,151.5313 Q188.4063,149.875 190.9063,149.875 Q191.6094,149.875 192.2578,150.0313 Q192.9063,150.1875 193.4688,150.4844 L193.4688,153.2031 Q192.8438,152.625 192.25,152.3516 Q191.6563,152.0781 191.0313,152.0781 Q189.6875,152.0781 189,153.1484 Q188.3125,154.2188 188.3125,156.3125 Q188.3125,158.4063 189,159.4766 Q189.6875,160.5469 191.0313,160.5469 Q191.6563,160.5469 192.25,160.2734 Q192.8438,160 193.4688,159.4219 L193.4688,162.1406 Z "/><text fill="#000000" font-family="sans-serif" font-size="12" lengthAdjust="spacingAndGlyphs" textLength="59" x="207.5" y="160.6543">ElementB</text><line style="stroke: #A80036; stroke-width: 1.5;" x1="163" x2="282" y1="172.5" y2="172.5"/><ellipse cx="173" cy="183.5" fill="#84BE84" rx="3" ry="3" style="stroke: #038048; stroke-width: 1.0;"/><text fill="#000000" font-family="sans-serif" font-size="11" lengthAdjust="spacingAndGlyphs" textLength="95" x="182" y="186.7104">accept(v: Visitor)</text><!--MD5=[c1180efcae4dcc9be95c95f0cf335b9f]
class VisitorA--><rect fill="#FEFECE" filter="url(#fdvzb5pffs21v)" height="65.6094" id="VisitorA" style="stroke: #A80036; stroke-width: 1.5;" width="126" x="318.5" y="134"/><ellipse cx="354.65" cy="150" fill="#ADD1B2" rx="11" ry="11" style="stroke: #A80036; stroke-width: 1.0;"/><path d="M357.6188,155.6406 Q357.0406,155.9375 356.4,156.0859 Q355.7594,156.2344 355.0563,156.2344 Q352.5563,156.2344 351.2359,154.5859 Q349.9156,152.9375 349.9156,149.8125 Q349.9156,146.6875 351.2359,145.0313 Q352.5563,143.375 355.0563,143.375 Q355.7594,143.375 356.4078,143.5313 Q357.0563,143.6875 357.6188,143.9844 L357.6188,146.7031 Q356.9938,146.125 356.4,145.8516 Q355.8063,145.5781 355.1813,145.5781 Q353.8375,145.5781 353.15,146.6484 Q352.4625,147.7188 352.4625,149.8125 Q352.4625,151.9063 353.15,152.9766 Q353.8375,154.0469 355.1813,154.0469 Q355.8063,154.0469 356.4,153.7734 Q356.9938,153.5 357.6188,152.9219 L357.6188,155.6406 Z "/><text fill="#000000" font-family="sans-serif" font-size="12" lengthAdjust="spacingAndGlyphs" textLength="47" x="373.35" y="154.1543">VisitorA</text><line style="stroke: #A80036; stroke-width: 1.5;" x1="319.5" x2="443.5" y1="166" y2="166"/><ellipse cx="329.5" cy="177" fill="#84BE84" rx="3" ry="3" style="stroke: #038048; stroke-width: 1.0;"/><text fill="#000000" font-family="sans-serif" font-size="11" lengthAdjust="spacingAndGlyphs" textLength="99" x="338.5" y="180.2104">visit(e: ElementA)</text><ellipse cx="329.5" cy="189.8047" fill="#84BE84" rx="3" ry="3" style="stroke: #038048; stroke-width: 1.0;"/><text fill="#000000" font-family="sans-serif" font-size="11" lengthAdjust="spacingAndGlyphs" textLength="100" x="338.5" y="193.0151">visit(e: ElementB)</text><!--MD5=[de4560b2a78a925d5c3aa6b67a3ce0b7]
reverse link Element to ElementA--><path d="M173.5586,80.5296 C149.4567,99.9965 121.0356,122.952 99.5359,140.3172 " fill="none" id="Element&lt;-ElementA" style="stroke: #A80036; stroke-width: 1.0; stroke-dasharray: 7.0,7.0;"/><polygon fill="none" points="169.4592,74.8425,189.4164,67.7214,178.2559,85.7337,169.4592,74.8425" style="stroke: #A80036; stroke-width: 1.0;"/><!--MD5=[f4813b9d2937dabe4940d8c892a984f1]
reverse link Element to ElementB--><path d="M222.5,87.9755 C222.5,105.6481 222.5,125.1227 222.5,140.3172 " fill="none" id="Element&lt;-ElementB" style="stroke: #A80036; stroke-width: 1.0; stroke-dasharray: 7.0,7.0;"/><polygon fill="none" points="215.5001,87.7214,222.5,67.7214,229.5001,87.7213,215.5001,87.7214" style="stroke: #A80036; stroke-width: 1.0;"/><!--MD5=[43f927c006a32d8e9fb304003cf81c0e]
link Element to Visitor--><path d="M283.6777,41 C293.5481,41 303.4185,41 313.2889,41 " fill="none" id="Element-&gt;Visitor" style="stroke: #A80036; stroke-width: 1.0; stroke-dasharray: 7.0,7.0;"/><polygon fill="#A80036" points="318.4505,41,309.4505,37,313.4505,41,309.4505,45,318.4505,41" style="stroke: #A80036; stroke-width: 1.0;"/><!--MD5=[026afd3fd65603cb35fca22ad0bcaf53]
reverse link Visitor to VisitorA--><path d="M381.5,94.2616 C381.5,107.63 381.5,121.5979 381.5,133.6786 " fill="none" id="Visitor&lt;-VisitorA" style="stroke: #A80036; stroke-width: 1.0; stroke-dasharray: 7.0,7.0;"/><polygon fill="none" points="374.5001,94.1051,381.5,74.105,388.5001,94.105,374.5001,94.1051" style="stroke: #A80036; stroke-width: 1.0;"/><!--MD5=[2cfb06d91b7372753bd1503107750e84]
@startuml
interface Element {
 + {abstract} accept(v: Visitor)
}
interface Visitor {
 + {abstract} visit(e: ElementA)
 + {abstract} visit(e: ElementB)
}
class ElementA {
 + accept(v: Visitor)
}
class ElementB {
 + accept(v: Visitor)
}
class VisitorA {
 + visit(e: ElementA)
 + visit(e: ElementB)
}
ElementA .up.|> Element
ElementB .up.|> Element
Element .right.> Visitor
VisitorA .up.|> Visitor
hide empty attributes
hide empty methods
@enduml

PlantUML version 1.2019.12(Sun Nov 03 10:24:54 GMT 2019)
(APACHE source distribution)
Java Runtime: OpenJDK Runtime Environment
JVM: OpenJDK 64-Bit Server VM
Java Version: 1.8.0_212-b04
Operating System: Linux
Default Encoding: UTF-8
Language: en
Country: US
--></g></svg>